# xmcd CD database file
#
# Track frame offsets:
#	150
#	14190
#	28515
#	43705
#	57325
#	70135
#	84630
#	99275
#	113560
#	127440
#
# Disc length: 1881 seconds
#
# Revision: 0
# Processed by: cddbd v1.5.2PL0 Copyright (c) Steve Scherf et al.
# Submitted via: CdAid (MTCDDB.DLL V2003.12.21)
#
DISCID=8907570a
DTITLE=Dener e Denilson - Dener e Denilson
DYEAR=1999
DGENRE=Folk
TTITLE0=Coração sem vergonha
TTITLE1=Só não quis me levar
TTITLE2=Paixão doida
TTITLE3=Não segurei o coração
TTITLE4=Sabor dos seus beijos
TTITLE5=Eterno amante
TTITLE6=Entre lágrimas
TTITLE7=Solidão de amigos
TTITLE8=Sonhos e loucuras
TTITLE9=Ponto fraco
EXTD=ID3G:  80 YEAR: 1999
EXTT0=
EXTT1=
EXTT2=
EXTT3=
EXTT4=
EXTT5=
EXTT6=
EXTT7=
EXTT8=
EXTT9=
PLAYORDER=
